PathFileType	4	(X/Y/Z)	7_coords_data.trc
DataRate	CameraRate	NumFrames	NumMarkers	Units	OrigDataRate	OrigDataStartFrame	OrigNumFrames
30.0	30.0	9	21	m	30.0	59	68
Frame#	Time	THUMB_TIP	THUMB_IP	THUMB_MCP	THUMB_CMC	INDEX_TIP	INDEX_DIP	INDEX_PIP	INDEX_MCP	MIDDLE_TIP	MIDDLE_DIP	MIDDLE_PIP	MIDDLE_MCP	RING_TIP	RING_DIP	RING_PIP	RING_MCP	PINKY_TIP	PINKY_DIP	PINKY_PIP	PINKY_MCP	WRIST
X1	Y1	Z1	X2	Y2	Z2	X3	Y3	Z3	X4	Y4	Z4	X5	Y5	Z5	X6	Y6	Z6	X7	Y7	Z7	X8	Y8	Z8	X9	Y9	Z9	X10	Y10	Z10	X11	Y11	Z11	X12	Y12	Z12	X13	Y13	Z13	X14	Y14	Z14	X15	Y15	Z15	X16	Y16	Z16	X17	Y17	Z17	X18	Y18	Z18	X19	Y19	Z19	X20	Y20	Z20	X21	Y21	Z21
57	1.9333333333333247	0.5255146706681276	0.06988162683381349	-0.09725126774158138	0.5129164101606776	0.05077748058684761	-0.09517390682903717	0.49767758480882107	0.023683623291077538	-0.09358611001204012	0.4817945952405323	-0.006171866362811196	-0.06449538331262314	0.5164952588206576	0.12793132888537284	-0.042957759709227744	0.5037247286834521	0.11690811393834966	-0.04954580131857192	0.48851779900891945	0.09874748747572892	-0.05796902928408351	0.47440716679687817	0.05947281884990496	-0.06645587539487266	0.49296050772189026	0.1359507385730222	-0.01078765918891017	0.4821841298610532	0.12279335597199836	-0.017012847000593967	0.4685393514451532	0.09972674696894046	-0.0284654065870375	0.46381018967572146	0.05811822499912611	-0.04403826276199879	0.4921513959862781	0.12084860717335089	0.006897776016492441	0.48058731023387813	0.10794742448415484	0.001914663943587691	0.4676272202768298	0.08845476014678777	-0.006585458663525251	0.46491375726673195	0.05143965542835993	-0.022624161079140503	0.49604495094813034	0.08155274407704927	0.04408680785284065	0.48798488631848164	0.0708946090471615	0.0333891671853587	0.4793348168743129	0.05808009571725481	0.019184359346859192	0.4702027958855951	0.03508273802186368	-0.0070570427249025125	0.4622830810018609	-0.023011742144276925	-0.051989820119430985
58	1.966666666666658	0.5264197395161696	0.0705192481375958	-0.09638170847711297	0.5142203272801913	0.05129475489979651	-0.09328441920317115	0.4990895133535781	0.024133778601263423	-0.0918147810066326	0.482233447339944	-0.006096172176609738	-0.06367383016073239	0.5117623962852708	0.13142952983178124	-0.03915471415163893	0.5006840841540889	0.11900645501287688	-0.046291815269600856	0.48760558223421324	0.09950337798842024	-0.055269153801143556	0.47568629056113554	0.05962616683924005	-0.06428994151485287	0.48502416704021073	0.13797893949014772	-0.0062693232867576665	0.4766891190956145	0.12364078915039833	-0.013545614965630365	0.46625237614612236	0.099491937665528	-0.02608821910384279	0.46423268898731895	0.057925325489315393	-0.042345080331426005	0.48512179468442707	0.12187755647777809	0.01177717232526701	0.47557087443570145	0.10792897967467496	0.005514814337223312	0.4650374295616374	0.08757963927859436	-0.0042386908547320246	0.46427889534649586	0.050847808511446324	-0.021118207090040975	0.4912676915415576	0.07936799105536874	0.048175033206739076	0.4841145051833191	0.06890120405908196	0.036673803059547455	0.47644806108639615	0.05639631203542417	0.021651641784104586	0.4687656967297793	0.0342129329264409	-0.0057301481537229415	0.4622830810018609	-0.023011742144276925	-0.051989820119430985
60	2.000000000000001	0.5266713595921741	0.07141934120465376	-0.09580868406769308	0.5151289890643794	0.05205887640700724	-0.0913425800140257	0.5002779008249751	0.024743373690963688	-0.08988364565112872	0.4826341553647855	-0.005978216577584905	-0.0627769649707603	0.5065857443938667	0.13431265629210176	-0.03517695399770224	0.4973284789349169	0.12072935323962308	-0.04277938218921143	0.48649760857381263	0.10010403176721283	-0.05222915437591999	0.476794456007249	0.05976698134465119	-0.06184202530388502	0.4773397726304841	0.13889614417876384	-0.0019669922918846283	0.47138354565912843	0.123820345873762	-0.01004434741176144	0.46405005397758226	0.09899880177829268	-0.023442869661374127	0.4644813594527205	0.05766207075480323	-0.04039092456094312	0.4783416301151343	0.12189842308323706	0.016612370840854707	0.4707807981306805	0.10728755075497842	0.009239703107246366	0.46259395150096116	0.08643241739301244	-0.0016331499551316964	0.463455636874894	0.05012359134846067	-0.019399620724050465	0.48617527652415926	0.07679294820905225	0.05221564685936461	0.4799154086901478	0.06659786940434742	0.039973325883889105	0.4732641051288423	0.05445354854593354	0.024190814967585045	0.4671037352603892	0.033162982978576006	-0.004263448542580095	0.4622830810018609	-0.023011742144276925	-0.051989820119430985
61	2.033333333333334	0.5268365839910885	0.0721208403842083	-0.09529318079130003	0.5159685427362832	0.052723938525505276	-0.08949267412656028	0.5013458319474828	0.025285727779296607	-0.08802948574711353	0.4829821178711393	-0.005881548061743458	-0.0619284336232849	0.5017487159028782	0.13638361669773036	-0.03158327620990442	0.49425880620734464	0.12192624887848902	-0.039513330969609406	0.48556514102391096	0.10046425797246838	-0.04930174069888807	0.4778597157430675	0.05982478997396101	-0.059435651890508145	0.4705793337960933	0.1389471227358332	0.0018152253056000767	0.4668153285893663	0.12349198261749061	-0.0068433489838618244	0.4623007973522362	0.09835558064272776	-0.020885779452698622	0.464787474829952	0.057350270025355976	-0.03845076898570651	0.47241681446960204	0.12123038238907624	0.020950128952766323	0.4666854119144085	0.10626926807770931	0.012684774555492467	0.4606215514163994	0.08518833026063799	0.0008947942495947381	0.4627580043551517	0.0493532980341953	-0.01770646560478914	0.48153908265340295	0.07406394035349873	0.05581994452769942	0.47610858829676633	0.06417622658614475	0.042945829121295104	0.47040002560231975	0.05242720641265464	0.026508528371886886	0.46561339232602095	0.032059644435963985	-0.0028706140935408075	0.4622830810018609	-0.023011742144276925	-0.051989820119430985
62	2.0666666666666678	0.5269383971482218	0.0726024548046551	-0.09486252543177742	0.5167160386228283	0.053259162499114554	-0.08783825116600905	0.5022616490841632	0.02573288236359328	-0.08635685825211448	0.4832696639620492	-0.005809336990901581	-0.06117188457108144	0.497516756736863	0.13773428639056118	-0.028479350823580857	0.49162486295443875	0.1226612477595409	-0.03660887074079611	0.48483822087867084	0.10061830972518104	-0.04661188054528945	0.4788445412478809	0.059804915535468406	-0.05719388192492386	0.4650648957504214	0.1384045486994766	0.0050482909032143475	0.4631617077306224	0.12283240492220426	-0.004000809247698495	0.46103271691090697	0.09764288700852142	-0.01850477888934568	0.46512866065966396	0.05700971823237999	-0.036624292155894245	0.46758924432946747	0.12012295067004575	0.024713619360332242	0.46341273008183415	0.10504132145167822	0.015763692608732477	0.45914055607218296	0.08393843697240044	0.0032498293009639856	0.4622106059884101	0.04858290807406507	-0.0161223725313229	0.4775693555983037	0.07135866526915402	0.05890143949282678	0.47286901517140945	0.06178655785495124	0.0455118330937475	0.4679840494647929	0.050439728940586015	0.02853541996749187	0.46435801026226875	0.03097113930480988	-0.001609385692779186	0.4622830810018609	-0.023011742144276925	-0.051989820119430985
63	2.1000000000000014	0.527011460971323	0.07286649552425895	-0.094556002290379	0.517355882841603	0.05364182918994542	-0.08648246432272266	0.5030015211142908	0.026064951118739743	-0.08496981920660224	0.4834926845492392	-0.0057622729735269385	-0.06055009147554924	0.4941266750891432	0.13851444406168378	-0.02594837953941101	0.48956639306953803	0.12303475076339576	-0.03416926290390415	0.48434826441143203	0.10061757352887346	-0.04428119304327269	0.47971519923243433	0.05972600050404597	-0.055237928716015544	0.4610726597614343	0.13757597534117194	0.007728326692223758	0.46059252168059917	0.12203889052439776	-0.0015651367536448912	0.4602781268913123	0.09694742260022993	-0.01638839359304861	0.4654827612291951	0.05666908208009902	-0.035008677891450596	0.46406701813175494	0.11884083918939903	0.02784286545433931	0.46108275874434135	0.10378107063757624	0.01839312645931057	0.45817313013370303	0.08277822335726503	0.0053319455606291866	0.4618385851589555	0.04786732121204329	-0.014730810602585381	0.4744683778394374	0.06886794774780203	0.06140394742805182	0.4703666005536112	0.05959143365584518	0.047615484518822054	0.4661401341980954	0.04862302683569586	0.030218845390145674	0.46340082810212124	0.029973180400423738	-0.0005311608058428952	0.4622830810018609	-0.023011742144276925	-0.051989820119430985
64	2.1333333333333346	0.5270948837501779	0.07292848379855255	-0.0944240411784229	0.5178771064687984	0.05385329662115157	-0.08552629898514719	0.5035463823006191	0.02626654962497199	-0.08397010652136108	0.4836490956339199	-0.005739799041646343	-0.06010419718745863	0.4917818884618422	0.13889676867394785	-0.024064263785749745	0.4882094664720291	0.12316281966843867	-0.03229108880022169	0.48412716031002345	0.10052216559696103	-0.04242742899850477	0.4804415635848872	0.05961608073793723	-0.05368552352138084	0.4588458401976229	0.13675788351295926	0.00985084825783833	0.4592702278065316	0.12130575069677585	0.00041413873658938116	0.4600716419152382	0.0963552383209797	-0.01462711179691395	0.4658281086410618	0.05636372093142483	-0.03369775805537656	0.46203486077989686	0.11763586997000175	0.030276044011380177	0.4598081707785261	0.10266252217064964	0.020486217285771824	0.45774111474370976	0.08180500342982344	0.007037382008134668	0.4616667129176477	0.04726769497598704	-0.013614127325116021	0.47242793679786643	0.06678344656258084	0.06328811584533929	0.4687636602213361	0.0577553016862431	0.04921453501946045	0.4649866675905391	0.047110712243566666	0.03151597402530698	0.4628039332551445	0.02914510964554251	0.00031731627996550715	0.4622830810018609	-0.023011742144276925	-0.051989820119430985
65	2.166666666666668	0.5272261060010164	0.07280462888070727	-0.0945231951705803	0.5182693025788251	0.05387373416005836	-0.08506820191135869	0.5038774888748483	0.026321985150348004	-0.08345673524525726	0.4837367508950008	-0.00574168074624537	-0.059873648023717196	0.49066679189354767	0.13903827777119138	-0.02290763719545441	0.48767115366024816	0.12315249089001956	-0.031072680167857303	0.4842062982639923	0.10039017700303465	-0.04116632552488328	0.48099587562956303	0.05950708553211803	-0.05265119001206872	0.4586324784020178	0.13618925314376762	0.011379443631943181	0.45935854413664456	0.12079365988307011	0.0018690000723521616	0.46044630427925803	0.09594171233659365	-0.013316750848143405	0.4661436115627874	0.05613243506598542	-0.032782362934817816	0.4616780204105093	0.11671894201948518	0.031926020954141834	0.4596996607591789	0.10183901010584018	0.021942348316515897	0.45786320824342863	0.08111278095732755	0.008259116006833211	0.4617186169676632	0.04684731668481856	-0.012853311986140648	0.4716328726314972	0.06528726661735662	0.06451180167534484	0.46821687053170136	0.05643510617112579	0.05026504116327141	0.46463811559629087	0.0460309873954593	0.032383239111629644	0.46262800497595036	0.028565447835578572	0.0008904171647757808	0.4622830810018609	-0.023011742144276925	-0.051989820119430985
66	2.200000000000001	0.5274363857293383	0.07249873867774159	-0.09490759544636151	0.51851746084515	0.05367569389819227	-0.08520472143206603	0.5039708357071533	0.02620935717287365	-0.0835266141691012	0.48375094283762876	-0.005769837325754201	-0.05989661096207902	0.4909702921841152	0.13904053858250875	-0.022583699412700886	0.48806755393573187	0.12307458439958152	-0.030624993940949613	0.48461459320083716	0.10026511526723014	-0.040615740312646836	0.4813504939301654	0.05942811389386371	-0.052248498746606975	0.4607256621587964	0.13599642845361148	0.012206344900138971	0.46102760111770924	0.12059074849565021	0.0026893150116727438	0.46142586454140483	0.09575918531166716	-0.012563370197339163	0.4664085842045027	0.05601336374555521	-0.032352005668077555	0.46320688091759266	0.11622575657921819	0.032651099441667344	0.46086990785931314	0.10142071551507126	0.022633648867104894	0.4585515238626533	0.0807848781828775	0.008887111403318854	0.46201608303611197	0.04666617072026502	-0.012528571280505968	0.47226792882407465	0.06454287494597877	0.06500575887962762	0.4688815544095804	0.05577160794647573	0.05070200610113333	0.46520817658678637	0.04549994543183489	0.03276290736244722	0.462932546063511	0.028306976808681772	0.0011384423607304073	0.4622830810018609	-0.023011742144276925	-0.051989820119430985
